<?xml version="1.0" standalone="no"?>
<!DOCTYPE svg PUBLIC "-//W3C//DTD SVG 20010904//EN"
 "http://www.w3.org/TR/2001/REC-SVG-20010904/DTD/svg10.dtd">
<svg version="1.0" xmlns="http://www.w3.org/2000/svg"
 width="16.000000pt" height="16.000000pt" viewBox="0 0 16.000000 16.000000"
 preserveAspectRatio="xMidYMid meet">

<g transform="translate(0.000000,16.000000) scale(0.100000,-0.100000)"
fill="#000000" stroke="none">
<path d="M10 95 c0 -25 5 -45 10 -45 6 0 10 16 10 35 0 24 5 35 15 35 11 0 15
-11 15 -37 0 -48 12 -35 14 17 2 39 2 40 -31 40 -32 0 -33 -1 -33 -45z"/>
<path d="M80 96 c0 -8 4 -18 10 -21 6 -4 5 -13 -2 -25 -7 -11 -9 -23 -4 -27 4
-4 12 1 18 11 11 19 11 19 24 1 17 -23 33 -11 18 13 -8 12 -8 22 0 34 15 24
-1 35 -18 12 -14 -18 -15 -18 -21 -1 -9 21 -25 23 -25 3z"/>
</g>
</svg>
